<svg width="205" height="205" viewBox="0 0 205 205" fill="none" xmlns="http://www.w3.org/2000/svg">
<path d="M81.3083 62.3157C84.2709 62.3157 86.673 67.9207 86.673 74.8348C86.673 81.7489 84.2709 87.354 81.3083 87.354C78.3451 87.354 75.9436 81.7489 75.9436 74.8348C75.9436 67.9207 78.3451 62.3157 81.3083 62.3157ZM123.036 62.3157C125.998 62.3157 128.4 67.9207 128.4 74.8348C128.4 81.7489 125.998 87.354 123.036 87.354C120.073 87.354 117.668 81.7489 117.668 74.8348C117.668 67.9207 120.073 62.3157 123.036 62.3157ZM181.894 118.334C179.745 116.449 180.297 112.969 182.922 111.841L196.408 106.045C199.544 104.697 199.544 100.25 196.408 98.9024L182.923 93.1065C180.297 91.978 179.746 88.4973 181.895 86.613L192.928 76.9376C195.494 74.6867 194.12 70.4573 190.721 70.1446L176.106 68.8003C173.26 68.5385 171.66 65.3985 173.121 62.9425L180.625 50.3271C182.37 47.3934 179.757 43.7961 176.428 44.5485L162.11 47.7844C159.323 48.4143 156.832 45.9226 157.462 43.1356L160.698 28.8259C161.452 25.4963 157.854 22.8826 154.92 24.6278L142.308 32.1295C139.852 33.5903 136.713 31.9907 136.451 29.1451L135.105 14.5262C134.792 11.1271 130.564 9.75314 128.313 12.3191L118.633 23.3532C116.748 25.5014 113.268 24.9499 112.14 22.3244L106.345 8.83919C104.997 5.70273 100.551 5.70258 99.2027 8.83893L93.4069 22.3246C92.2785 24.9501 88.798 25.5013 86.9137 23.353L77.2359 12.3201C74.9849 9.75383 70.7561 11.1278 70.4432 14.527L69.0977 29.1451C68.8358 31.9907 65.696 33.5903 63.2401 32.1295L50.6283 24.6278C47.6943 22.8826 44.0969 25.4963 44.85 28.8259L48.0866 43.1356C48.7169 45.9226 46.2256 48.4143 43.4385 47.7844L29.1205 44.5485C25.791 43.7961 23.178 47.3934 24.9231 50.3271L32.4274 62.9425C33.8884 65.3985 32.2886 68.5385 29.4429 68.8003L14.8276 70.1446C11.4281 70.4573 10.0541 74.6867 12.6209 76.9376L23.6539 86.613C25.8025 88.4972 25.2515 91.978 22.6259 93.1065L9.14082 98.9023C6.00467 100.25 6.00467 104.697 9.14082 106.045L22.6269 111.841C25.2522 112.969 25.8034 116.45 23.6553 118.334L12.6186 128.015C10.0524 130.267 11.4265 134.495 14.8258 134.808L29.4429 136.153C32.2886 136.414 33.8884 139.554 32.4274 142.01L24.9243 154.624C23.179 157.558 25.7928 161.155 29.1225 160.402L43.4378 157.164C46.225 156.533 48.7169 159.025 48.0866 161.812L44.8495 176.127C44.0966 179.457 47.6939 182.07 50.6278 180.325L63.2402 172.823C65.6961 171.362 68.8359 172.962 69.0978 175.808L70.4431 190.42C70.756 193.819 74.9848 195.193 77.2358 192.627L86.9137 181.594C88.798 179.446 92.2785 179.997 93.4069 182.622L99.2027 196.108C100.551 199.244 104.997 199.244 106.345 196.108L112.14 182.623C113.268 179.997 116.748 179.446 118.633 181.594L128.313 192.628C130.564 195.194 134.792 193.82 135.105 190.421L136.451 175.808C136.713 172.962 139.852 171.362 142.308 172.823L154.921 180.325C157.854 182.07 161.452 179.457 160.699 176.127L157.462 161.812C156.832 159.025 159.323 156.533 162.111 157.164L176.426 160.402C179.756 161.155 182.369 157.558 180.624 154.624L173.121 142.01C171.66 139.554 173.26 136.414 176.106 136.153L190.723 134.808C194.122 134.495 195.496 130.267 192.93 128.015L181.894 118.334Z" fill="#154FFE"/>
</svg>
